<svg width="24" height="24" viewBox="0 0 24 24" fill="none" xmlns="http://www.w3.org/2000/svg">
<path d="M0.631579 15.1579C0.463158 15.1579 0.315789 15.0947 0.189474 14.9684C0.0631579 14.8421 0 14.6947 0 14.5263C0 14.3579 0.0631579 14.2105 0.189474 14.0842C0.315789 13.9579 0.463158 13.8947 0.631579 13.8947C0.8 13.8947 0.947368 13.9579 1.07368 14.0842C1.2 14.2105 1.26316 14.3579 1.26316 14.5263C1.26316 14.6947 1.2 14.8421 1.07368 14.9684C0.947368 15.0947 0.8 15.1579 0.631579 15.1579ZM0.631579 10.1053C0.463158 10.1053 0.315789 10.0421 0.189474 9.91579C0.0631579 9.78947 0 9.64211 0 9.47368C0 9.30526 0.0631579 9.15789 0.189474 9.03158C0.315789 8.90526 0.463158 8.8421 0.631579 8.8421C0.8 8.8421 0.947368 8.90526 1.07368 9.03158C1.2 9.15789 1.26316 9.30526 1.26316 9.47368C1.26316 9.64211 1.2 9.78947 1.07368 9.91579C0.947368 10.0421 0.8 10.1053 0.631579 10.1053ZM4.42105 20.8421C4.06316 20.8421 3.76316 20.7211 3.52105 20.4789C3.27895 20.2368 3.15789 19.9368 3.15789 19.5789C3.15789 19.2211 3.27895 18.9211 3.52105 18.6789C3.76316 18.4368 4.06316 18.3158 4.42105 18.3158C4.77895 18.3158 5.07895 18.4368 5.32105 18.6789C5.56316 18.9211 5.68421 19.2211 5.68421 19.5789C5.68421 19.9368 5.56316 20.2368 5.32105 20.4789C5.07895 20.7211 4.77895 20.8421 4.42105 20.8421ZM4.42105 15.7895C4.06316 15.7895 3.76316 15.6684 3.52105 15.4263C3.27895 15.1842 3.15789 14.8842 3.15789 14.5263C3.15789 14.1684 3.27895 13.8684 3.52105 13.6263C3.76316 13.3842 4.06316 13.2632 4.42105 13.2632C4.77895 13.2632 5.07895 13.3842 5.32105 13.6263C5.56316 13.8684 5.68421 14.1684 5.68421 14.5263C5.68421 14.8842 5.56316 15.1842 5.32105 15.4263C5.07895 15.6684 4.77895 15.7895 4.42105 15.7895ZM4.42105 10.7368C4.06316 10.7368 3.76316 10.6158 3.52105 10.3737C3.27895 10.1316 3.15789 9.83158 3.15789 9.47368C3.15789 9.11579 3.27895 8.81579 3.52105 8.57368C3.76316 8.33158 4.06316 8.21053 4.42105 8.21053C4.77895 8.21053 5.07895 8.33158 5.32105 8.57368C5.56316 8.81579 5.68421 9.11579 5.68421 9.47368C5.68421 9.83158 5.56316 10.1316 5.32105 10.3737C5.07895 10.6158 4.77895 10.7368 4.42105 10.7368ZM4.42105 5.68421C4.06316 5.68421 3.76316 5.56316 3.52105 5.32105C3.27895 5.07895 3.15789 4.77895 3.15789 4.42105C3.15789 4.06316 3.27895 3.76316 3.52105 3.52105C3.76316 3.27895 4.06316 3.15789 4.42105 3.15789C4.77895 3.15789 5.07895 3.27895 5.32105 3.52105C5.56316 3.76316 5.68421 4.06316 5.68421 4.42105C5.68421 4.77895 5.56316 5.07895 5.32105 5.32105C5.07895 5.56316 4.77895 5.68421 4.42105 5.68421ZM9.47368 16.4211C8.94737 16.4211 8.5 16.2368 8.13158 15.8684C7.76316 15.5 7.57895 15.0526 7.57895 14.5263C7.57895 14 7.76316 13.5526 8.13158 13.1842C8.5 12.8158 8.94737 12.6316 9.47368 12.6316C10 12.6316 10.4474 12.8158 10.8158 13.1842C11.1842 13.5526 11.3684 14 11.3684 14.5263C11.3684 15.0526 11.1842 15.5 10.8158 15.8684C10.4474 16.2368 10 16.4211 9.47368 16.4211ZM9.47368 11.3684C8.94737 11.3684 8.5 11.1842 8.13158 10.8158C7.76316 10.4474 7.57895 10 7.57895 9.47368C7.57895 8.94737 7.76316 8.5 8.13158 8.13158C8.5 7.76316 8.94737 7.57895 9.47368 7.57895C10 7.57895 10.4474 7.76316 10.8158 8.13158C11.1842 8.5 11.3684 8.94737 11.3684 9.47368C11.3684 10 11.1842 10.4474 10.8158 10.8158C10.4474 11.1842 10 11.3684 9.47368 11.3684ZM9.47368 20.8421C9.11579 20.8421 8.81579 20.7211 8.57368 20.4789C8.33158 20.2368 8.21053 19.9368 8.21053 19.5789C8.21053 19.2211 8.33158 18.9211 8.57368 18.6789C8.81579 18.4368 9.11579 18.3158 9.47368 18.3158C9.83158 18.3158 10.1316 18.4368 10.3737 18.6789C10.6158 18.9211 10.7368 19.2211 10.7368 19.5789C10.7368 19.9368 10.6158 20.2368 10.3737 20.4789C10.1316 20.7211 9.83158 20.8421 9.47368 20.8421ZM9.47368 5.68421C9.11579 5.68421 8.81579 5.56316 8.57368 5.32105C8.33158 5.07895 8.21053 4.77895 8.21053 4.42105C8.21053 4.06316 8.33158 3.76316 8.57368 3.52105C8.81579 3.27895 9.11579 3.15789 9.47368 3.15789C9.83158 3.15789 10.1316 3.27895 10.3737 3.52105C10.6158 3.76316 10.7368 4.06316 10.7368 4.42105C10.7368 4.77895 10.6158 5.07895 10.3737 5.32105C10.1316 5.56316 9.83158 5.68421 9.47368 5.68421ZM9.47368 24C9.30526 24 9.15789 23.9368 9.03158 23.8105C8.90526 23.6842 8.8421 23.5368 8.8421 23.3684C8.8421 23.2 8.90526 23.0526 9.03158 22.9263C9.15789 22.8 9.30526 22.7368 9.47368 22.7368C9.64211 22.7368 9.78947 22.8 9.91579 22.9263C10.0421 23.0526 10.1053 23.2 10.1053 23.3684C10.1053 23.5368 10.0421 23.6842 9.91579 23.8105C9.78947 23.9368 9.64211 24 9.47368 24ZM9.47368 1.26316C9.30526 1.26316 9.15789 1.2 9.03158 1.07368C8.90526 0.947368 8.8421 0.8 8.8421 0.631579C8.8421 0.463158 8.90526 0.315789 9.03158 0.189474C9.15789 0.0631579 9.30526 0 9.47368 0C9.64211 0 9.78947 0.0631579 9.91579 0.189474C10.0421 0.315789 10.1053 0.463158 10.1053 0.631579C10.1053 0.8 10.0421 0.947368 9.91579 1.07368C9.78947 1.2 9.64211 1.26316 9.47368 1.26316ZM14.5263 16.4211C14 16.4211 13.5526 16.2368 13.1842 15.8684C12.8158 15.5 12.6316 15.0526 12.6316 14.5263C12.6316 14 12.8158 13.5526 13.1842 13.1842C13.5526 12.8158 14 12.6316 14.5263 12.6316C15.0526 12.6316 15.5 12.8158 15.8684 13.1842C16.2368 13.5526 16.4211 14 16.4211 14.5263C16.4211 15.0526 16.2368 15.5 15.8684 15.8684C15.5 16.2368 15.0526 16.4211 14.5263 16.4211ZM14.5263 11.3684C14 11.3684 13.5526 11.1842 13.1842 10.8158C12.8158 10.4474 12.6316 10 12.6316 9.47368C12.6316 8.94737 12.8158 8.5 13.1842 8.13158C13.5526 7.76316 14 7.57895 14.5263 7.57895C15.0526 7.57895 15.5 7.76316 15.8684 8.13158C16.2368 8.5 16.4211 8.94737 16.4211 9.47368C16.4211 10 16.2368 10.4474 15.8684 10.8158C15.5 11.1842 15.0526 11.3684 14.5263 11.3684ZM14.5263 20.8421C14.1684 20.8421 13.8684 20.7211 13.6263 20.4789C13.3842 20.2368 13.2632 19.9368 13.2632 19.5789C13.2632 19.2211 13.3842 18.9211 13.6263 18.6789C13.8684 18.4368 14.1684 18.3158 14.5263 18.3158C14.8842 18.3158 15.1842 18.4368 15.4263 18.6789C15.6684 18.9211 15.7895 19.2211 15.7895 19.5789C15.7895 19.9368 15.6684 20.2368 15.4263 20.4789C15.1842 20.7211 14.8842 20.8421 14.5263 20.8421ZM14.5263 5.68421C14.1684 5.68421 13.8684 5.56316 13.6263 5.32105C13.3842 5.07895 13.2632 4.77895 13.2632 4.42105C13.2632 4.06316 13.3842 3.76316 13.6263 3.52105C13.8684 3.27895 14.1684 3.15789 14.5263 3.15789C14.8842 3.15789 15.1842 3.27895 15.4263 3.52105C15.6684 3.76316 15.7895 4.06316 15.7895 4.42105C15.7895 4.77895 15.6684 5.07895 15.4263 5.32105C15.1842 5.56316 14.8842 5.68421 14.5263 5.68421ZM14.5263 24C14.3579 24 14.2105 23.9368 14.0842 23.8105C13.9579 23.6842 13.8947 23.5368 13.8947 23.3684C13.8947 23.2 13.9579 23.0526 14.0842 22.9263C14.2105 22.8 14.3579 22.7368 14.5263 22.7368C14.6947 22.7368 14.8421 22.8 14.9684 22.9263C15.0947 23.0526 15.1579 23.2 15.1579 23.3684C15.1579 23.5368 15.0947 23.6842 14.9684 23.8105C14.8421 23.9368 14.6947 24 14.5263 24ZM14.5263 1.26316C14.3579 1.26316 14.2105 1.2 14.0842 1.07368C13.9579 0.947368 13.8947 0.8 13.8947 0.631579C13.8947 0.463158 13.9579 0.315789 14.0842 0.189474C14.2105 0.0631579 14.3579 0 14.5263 0C14.6947 0 14.8421 0.0631579 14.9684 0.189474C15.0947 0.315789 15.1579 0.463158 15.1579 0.631579C15.1579 0.8 15.0947 0.947368 14.9684 1.07368C14.8421 1.2 14.6947 1.26316 14.5263 1.26316ZM19.5789 20.8421C19.2211 20.8421 18.9211 20.7211 18.6789 20.4789C18.4368 20.2368 18.3158 19.9368 18.3158 19.5789C18.3158 19.2211 18.4368 18.9211 18.6789 18.6789C18.9211 18.4368 19.2211 18.3158 19.5789 18.3158C19.9368 18.3158 20.2368 18.4368 20.4789 18.6789C20.7211 18.9211 20.8421 19.2211 20.8421 19.5789C20.8421 19.9368 20.7211 20.2368 20.4789 20.4789C20.2368 20.7211 19.9368 20.8421 19.5789 20.8421ZM19.5789 15.7895C19.2211 15.7895 18.9211 15.6684 18.6789 15.4263C18.4368 15.1842 18.3158 14.8842 18.3158 14.5263C18.3158 14.1684 18.4368 13.8684 18.6789 13.6263C18.9211 13.3842 19.2211 13.2632 19.5789 13.2632C19.9368 13.2632 20.2368 13.3842 20.4789 13.6263C20.7211 13.8684 20.8421 14.1684 20.8421 14.5263C20.8421 14.8842 20.7211 15.1842 20.4789 15.4263C20.2368 15.6684 19.9368 15.7895 19.5789 15.7895ZM19.5789 10.7368C19.2211 10.7368 18.9211 10.6158 18.6789 10.3737C18.4368 10.1316 18.3158 9.83158 18.3158 9.47368C18.3158 9.11579 18.4368 8.81579 18.6789 8.57368C18.9211 8.33158 19.2211 8.21053 19.5789 8.21053C19.9368 8.21053 20.2368 8.33158 20.4789 8.57368C20.7211 8.81579 20.8421 9.11579 20.8421 9.47368C20.8421 9.83158 20.7211 10.1316 20.4789 10.3737C20.2368 10.6158 19.9368 10.7368 19.5789 10.7368ZM19.5789 5.68421C19.2211 5.68421 18.9211 5.56316 18.6789 5.32105C18.4368 5.07895 18.3158 4.77895 18.3158 4.42105C18.3158 4.06316 18.4368 3.76316 18.6789 3.52105C18.9211 3.27895 19.2211 3.15789 19.5789 3.15789C19.9368 3.15789 20.2368 3.27895 20.4789 3.52105C20.7211 3.76316 20.8421 4.06316 20.8421 4.42105C20.8421 4.77895 20.7211 5.07895 20.4789 5.32105C20.2368 5.56316 19.9368 5.68421 19.5789 5.68421ZM23.3684 15.1579C23.2 15.1579 23.0526 15.0947 22.9263 14.9684C22.8 14.8421 22.7368 14.6947 22.7368 14.5263C22.7368 14.3579 22.8 14.2105 22.9263 14.0842C23.0526 13.9579 23.2 13.8947 23.3684 13.8947C23.5368 13.8947 23.6842 13.9579 23.8105 14.0842C23.9368 14.2105 24 14.3579 24 14.5263C24 14.6947 23.9368 14.8421 23.8105 14.9684C23.6842 15.0947 23.5368 15.1579 23.3684 15.1579ZM23.3684 10.1053C23.2 10.1053 23.0526 10.0421 22.9263 9.91579C22.8 9.78947 22.7368 9.64211 22.7368 9.47368C22.7368 9.30526 22.8 9.15789 22.9263 9.03158C23.0526 8.90526 23.2 8.8421 23.3684 8.8421C23.5368 8.8421 23.6842 8.90526 23.8105 9.03158C23.9368 9.15789 24 9.30526 24 9.47368C24 9.64211 23.9368 9.78947 23.8105 9.91579C23.6842 10.0421 23.5368 10.1053 23.3684 10.1053Z" fill="url(#paint0_linear_167_244)"/>
<defs>
<linearGradient id="paint0_linear_167_244" x1="12" y1="0" x2="12" y2="24" gradientUnits="userSpaceOnUse">
<stop stop-color="#30E958"/>
<stop offset="1" stop-color="#3ABF57"/>
</linearGradient>
</defs>
</svg>
