<svg width="24" height="24" viewBox="0 0 24 24" fill="none" xmlns="http://www.w3.org/2000/svg">
<path d="M0 4.5V0H2.4V4.5H0ZM0 24V19.5H2.4V24H0ZM6.3 7.7625L4.59 5.625L7.14 2.4375L8.85 4.575L6.3 7.7625ZM7.14 21.5625L4.59 18.375L6.3 16.2375L8.85 19.425L7.14 21.5625ZM7.2 13.5V10.5H14.4L12.24 6.9L14.16 5.1L17.76 11.1C18.06 11.6 18.1 12.125 17.88 12.675C17.66 13.225 17.3 13.5 16.8 13.5H7.2ZM22.2 22.5C21.7 22.5 21.275 22.2812 20.925 21.8438C20.575 21.4062 20.4 20.875 20.4 20.25V3.75C20.4 3.125 20.575 2.59375 20.925 2.15625C21.275 1.71875 21.7 1.5 22.2 1.5C22.7 1.5 23.125 1.71875 23.475 2.15625C23.825 2.59375 24 3.125 24 3.75V20.25C24 20.875 23.825 21.4062 23.475 21.8438C23.125 22.2812 22.7 22.5 22.2 22.5ZM0 18V15C0.66 15 1.225 14.7063 1.695 14.1188C2.165 13.5313 2.4 12.825 2.4 12C2.4 11.175 2.165 10.4688 1.695 9.88125C1.225 9.29375 0.66 9 0 9V6C1.32 6 2.45 6.5875 3.39 7.7625C4.33 8.9375 4.8 10.35 4.8 12C4.8 13.65 4.33 15.0625 3.39 16.2375C2.45 17.4125 1.32 18 0 18Z" fill="url(#paint0_linear_167_255)"/>
<defs>
<linearGradient id="paint0_linear_167_255" x1="12" y1="0" x2="12" y2="24" gradientUnits="userSpaceOnUse">
<stop stop-color="#30E958"/>
<stop offset="1" stop-color="#3ABF57"/>
</linearGradient>
</defs>
</svg>
