<svg width="24" height="24" viewBox="0 0 24 24" fill="none" xmlns="http://www.w3.org/2000/svg">
<path d="M3 24C2.175 24 1.46875 23.765 0.88125 23.295C0.29375 22.825 0 22.26 0 21.6V2.4C0 1.74 0.29375 1.175 0.88125 0.705C1.46875 0.235 2.175 0 3 0H21C21.825 0 22.5312 0.235 23.1188 0.705C23.7063 1.175 24 1.74 24 2.4V21.6C24 22.26 23.7063 22.825 23.1188 23.295C22.5312 23.765 21.825 24 21 24H3ZM3 21.6H21V2.4H3V21.6ZM12 20.4C14.075 20.4 15.8438 19.815 17.3063 18.645C18.7688 17.475 19.5 16.06 19.5 14.4C19.5 12.74 18.7688 11.325 17.3063 10.155C15.8438 8.985 14.075 8.4 12 8.4C9.925 8.4 8.15625 8.985 6.69375 10.155C5.23125 11.325 4.5 12.74 4.5 14.4C4.5 16.06 5.23125 17.475 6.69375 18.645C8.15625 19.815 9.925 20.4 12 20.4ZM12 18.36C11.35 18.36 10.7188 18.265 10.1063 18.075C9.49375 17.885 8.95 17.6 8.475 17.22L15.525 11.58C16 11.96 16.3563 12.395 16.5938 12.885C16.8313 13.375 16.95 13.88 16.95 14.4C16.95 15.5 16.4688 16.435 15.5063 17.205C14.5438 17.975 13.375 18.36 12 18.36ZM6 6C6.425 6 6.78125 5.885 7.06875 5.655C7.35625 5.425 7.5 5.14 7.5 4.8C7.5 4.46 7.35625 4.175 7.06875 3.945C6.78125 3.715 6.425 3.6 6 3.6C5.575 3.6 5.21875 3.715 4.93125 3.945C4.64375 4.175 4.5 4.46 4.5 4.8C4.5 5.14 4.64375 5.425 4.93125 5.655C5.21875 5.885 5.575 6 6 6ZM10.5 6C10.925 6 11.2812 5.885 11.5688 5.655C11.8563 5.425 12 5.14 12 4.8C12 4.46 11.8563 4.175 11.5688 3.945C11.2812 3.715 10.925 3.6 10.5 3.6C10.075 3.6 9.71875 3.715 9.43125 3.945C9.14375 4.175 9 4.46 9 4.8C9 5.14 9.14375 5.425 9.43125 5.655C9.71875 5.885 10.075 6 10.5 6Z" fill="url(#paint0_linear_167_253)"/>
<defs>
<linearGradient id="paint0_linear_167_253" x1="12" y1="0" x2="12" y2="24" gradientUnits="userSpaceOnUse">
<stop stop-color="#30E958"/>
<stop offset="1" stop-color="#3ABF57"/>
</linearGradient>
</defs>
</svg>
