<svg width="52" height="52" viewBox="0 0 52 52" fill="none" xmlns="http://www.w3.org/2000/svg">
<path d="M12 49.8333C12 48.6367 12.8954 47.6667 14 47.6667C15.1046 47.6667 16 48.6367 16 49.8333C16 51.03 15.1046 52 14 52C12.8954 52 12 51.03 12 49.8333Z" fill="#3ABF57"/>
<path d="M0 49.8333C0 48.6367 0.89543 47.6667 2 47.6667C3.10457 47.6667 4 48.6367 4 49.8333C4 51.03 3.10457 52 2 52C0.89543 52 0 51.03 0 49.8333Z" fill="#3ABF57"/>
<path d="M36 37.9167C36 36.72 36.8954 35.75 38 35.75C39.1046 35.75 40 36.72 40 37.9167C40 39.1133 39.1046 40.0833 38 40.0833C36.8954 40.0833 36 39.1133 36 37.9167Z" fill="#3ABF57"/>
<path d="M24 37.9167C24 36.72 24.8954 35.75 26 35.75C27.1046 35.75 28 36.72 28 37.9167C28 39.1133 27.1046 40.0833 26 40.0833C24.8954 40.0833 24 39.1133 24 37.9167Z" fill="#3ABF57"/>
<path d="M12 37.9167C12 36.72 12.8954 35.75 14 35.75C15.1046 35.75 16 36.72 16 37.9167C16 39.1133 15.1046 40.0833 14 40.0833C12.8954 40.0833 12 39.1133 12 37.9167Z" fill="#3ABF57"/>
<path d="M0 37.9167C0 36.72 0.89543 35.75 2 35.75C3.10457 35.75 4 36.72 4 37.9167C4 39.1133 3.10457 40.0833 2 40.0833C0.89543 40.0833 0 39.1133 0 37.9167Z" fill="#3ABF57"/>
<path d="M36 26C36 24.8034 36.8954 23.8333 38 23.8333C39.1046 23.8333 40 24.8034 40 26C40 27.1966 39.1046 28.1667 38 28.1667C36.8954 28.1667 36 27.1966 36 26Z" fill="#3ABF57"/>
<path d="M24 26C24 24.8034 24.8954 23.8333 26 23.8333C27.1046 23.8333 28 24.8034 28 26C28 27.1966 27.1046 28.1667 26 28.1667C24.8954 28.1667 24 27.1966 24 26Z" fill="#3ABF57"/>
<path d="M12 26C12 24.8034 12.8954 23.8333 14 23.8333C15.1046 23.8333 16 24.8034 16 26C16 27.1966 15.1046 28.1667 14 28.1667C12.8954 28.1667 12 27.1966 12 26Z" fill="#3ABF57"/>
<path d="M0 26C0 24.8034 0.89543 23.8333 2 23.8333C3.10457 23.8333 4 24.8034 4 26C4 27.1966 3.10457 28.1667 2 28.1667C0.89543 28.1667 0 27.1966 0 26Z" fill="#3ABF57"/>
<path d="M48 14.0833C48 12.8867 48.8954 11.9167 50 11.9167C51.1046 11.9167 52 12.8867 52 14.0833C52 15.2799 51.1046 16.25 50 16.25C48.8954 16.25 48 15.2799 48 14.0833Z" fill="#3ABF57"/>
<path d="M36 14.0833C36 12.8867 36.8954 11.9167 38 11.9167C39.1046 11.9167 40 12.8867 40 14.0833C40 15.2799 39.1046 16.25 38 16.25C36.8954 16.25 36 15.2799 36 14.0833Z" fill="#3ABF57"/>
<path d="M24 14.0833C24 12.8867 24.8954 11.9167 26 11.9167C27.1046 11.9167 28 12.8867 28 14.0833C28 15.2799 27.1046 16.25 26 16.25C24.8954 16.25 24 15.2799 24 14.0833Z" fill="#3ABF57"/>
<path d="M12 14.0833C12 12.8867 12.8954 11.9167 14 11.9167C15.1046 11.9167 16 12.8867 16 14.0833C16 15.2799 15.1046 16.25 14 16.25C12.8954 16.25 12 15.2799 12 14.0833Z" fill="#3ABF57"/>
<path d="M0 14.0833C0 12.8867 0.89543 11.9167 2 11.9167C3.10457 11.9167 4 12.8867 4 14.0833C4 15.2799 3.10457 16.25 2 16.25C0.89543 16.25 0 15.2799 0 14.0833Z" fill="#3ABF57"/>
<path d="M48 2.16666C48 0.970047 48.8954 0 50 0C51.1046 0 52 0.970047 52 2.16666C52 3.36328 51.1046 4.33333 50 4.33333C48.8954 4.33333 48 3.36328 48 2.16666Z" fill="#3ABF57"/>
<path d="M36 2.16666C36 0.970047 36.8954 0 38 0C39.1046 0 40 0.970047 40 2.16666C40 3.36328 39.1046 4.33333 38 4.33333C36.8954 4.33333 36 3.36328 36 2.16666Z" fill="#3ABF57"/>
<path d="M24 2.16666C24 0.970047 24.8954 0 26 0C27.1046 0 28 0.970047 28 2.16666C28 3.36328 27.1046 4.33333 26 4.33333C24.8954 4.33333 24 3.36328 24 2.16666Z" fill="#3ABF57"/>
<path d="M12 2.16666C12 0.970047 12.8954 0 14 0C15.1046 0 16 0.970047 16 2.16666C16 3.36328 15.1046 4.33333 14 4.33333C12.8954 4.33333 12 3.36328 12 2.16666Z" fill="#3ABF57"/>
<path d="M0 2.16666C0 0.970047 0.89543 0 2 0C3.10457 0 4 0.970047 4 2.16666C4 3.36328 3.10457 4.33333 2 4.33333C0.89543 4.33333 0 3.36328 0 2.16666Z" fill="#3ABF57"/>
</svg>
