<svg width="52" height="52" viewBox="0 0 52 52" fill="none" xmlns="http://www.w3.org/2000/svg">
<path d="M2.16667 12C3.36328 12 4.33333 12.8954 4.33333 14C4.33333 15.1046 3.36328 16 2.16667 16C0.97005 16 0 15.1046 0 14C0 12.8954 0.97005 12 2.16667 12Z" fill="#3ABF57"/>
<path d="M2.16667 0C3.36328 0 4.33333 0.89543 4.33333 2C4.33333 3.10457 3.36328 4 2.16667 4C0.97005 4 0 3.10457 0 2C0 0.89543 0.97005 0 2.16667 0Z" fill="#3ABF57"/>
<path d="M14.0833 36C15.28 36 16.25 36.8954 16.25 38C16.25 39.1046 15.28 40 14.0833 40C12.8867 40 11.9167 39.1046 11.9167 38C11.9167 36.8954 12.8867 36 14.0833 36Z" fill="#3ABF57"/>
<path d="M14.0833 24C15.28 24 16.25 24.8954 16.25 26C16.25 27.1046 15.28 28 14.0833 28C12.8867 28 11.9167 27.1046 11.9167 26C11.9167 24.8954 12.8867 24 14.0833 24Z" fill="#3ABF57"/>
<path d="M14.0833 12C15.28 12 16.25 12.8954 16.25 14C16.25 15.1046 15.28 16 14.0833 16C12.8867 16 11.9167 15.1046 11.9167 14C11.9167 12.8954 12.8867 12 14.0833 12Z" fill="#3ABF57"/>
<path d="M14.0833 0C15.28 0 16.25 0.89543 16.25 2C16.25 3.10457 15.28 4 14.0833 4C12.8867 4 11.9167 3.10457 11.9167 2C11.9167 0.89543 12.8867 0 14.0833 0Z" fill="#3ABF57"/>
<path d="M26 36C27.1966 36 28.1667 36.8954 28.1667 38C28.1667 39.1046 27.1966 40 26 40C24.8034 40 23.8333 39.1046 23.8333 38C23.8333 36.8954 24.8034 36 26 36Z" fill="#3ABF57"/>
<path d="M26 24C27.1966 24 28.1667 24.8954 28.1667 26C28.1667 27.1046 27.1966 28 26 28C24.8034 28 23.8333 27.1046 23.8333 26C23.8333 24.8954 24.8034 24 26 24Z" fill="#3ABF57"/>
<path d="M26 12C27.1966 12 28.1667 12.8954 28.1667 14C28.1667 15.1046 27.1966 16 26 16C24.8034 16 23.8333 15.1046 23.8333 14C23.8333 12.8954 24.8034 12 26 12Z" fill="#3ABF57"/>
<path d="M26 0C27.1966 0 28.1667 0.89543 28.1667 2C28.1667 3.10457 27.1966 4 26 4C24.8034 4 23.8333 3.10457 23.8333 2C23.8333 0.89543 24.8034 0 26 0Z" fill="#3ABF57"/>
<path d="M37.9167 48C39.1133 48 40.0833 48.8954 40.0833 50C40.0833 51.1046 39.1133 52 37.9167 52C36.7201 52 35.75 51.1046 35.75 50C35.75 48.8954 36.7201 48 37.9167 48Z" fill="#3ABF57"/>
<path d="M37.9167 36C39.1133 36 40.0833 36.8954 40.0833 38C40.0833 39.1046 39.1133 40 37.9167 40C36.7201 40 35.75 39.1046 35.75 38C35.75 36.8954 36.7201 36 37.9167 36Z" fill="#3ABF57"/>
<path d="M37.9167 24C39.1133 24 40.0833 24.8954 40.0833 26C40.0833 27.1046 39.1133 28 37.9167 28C36.7201 28 35.75 27.1046 35.75 26C35.75 24.8954 36.7201 24 37.9167 24Z" fill="#3ABF57"/>
<path d="M37.9167 12C39.1133 12 40.0833 12.8954 40.0833 14C40.0833 15.1046 39.1133 16 37.9167 16C36.7201 16 35.75 15.1046 35.75 14C35.75 12.8954 36.7201 12 37.9167 12Z" fill="#3ABF57"/>
<path d="M37.9167 0C39.1133 0 40.0833 0.89543 40.0833 2C40.0833 3.10457 39.1133 4 37.9167 4C36.7201 4 35.75 3.10457 35.75 2C35.75 0.89543 36.7201 0 37.9167 0Z" fill="#3ABF57"/>
<path d="M49.8333 48C51.03 48 52 48.8954 52 50C52 51.1046 51.03 52 49.8333 52C48.6367 52 47.6667 51.1046 47.6667 50C47.6667 48.8954 48.6367 48 49.8333 48Z" fill="#3ABF57"/>
<path d="M49.8333 36C51.03 36 52 36.8954 52 38C52 39.1046 51.03 40 49.8333 40C48.6367 40 47.6667 39.1046 47.6667 38C47.6667 36.8954 48.6367 36 49.8333 36Z" fill="#3ABF57"/>
<path d="M49.8333 24C51.03 24 52 24.8954 52 26C52 27.1046 51.03 28 49.8333 28C48.6367 28 47.6667 27.1046 47.6667 26C47.6667 24.8954 48.6367 24 49.8333 24Z" fill="#3ABF57"/>
<path d="M49.8333 12C51.03 12 52 12.8954 52 14C52 15.1046 51.03 16 49.8333 16C48.6367 16 47.6667 15.1046 47.6667 14C47.6667 12.8954 48.6367 12 49.8333 12Z" fill="#3ABF57"/>
<path d="M49.8333 0C51.03 0 52 0.89543 52 2C52 3.10457 51.03 4 49.8333 4C48.6367 4 47.6667 3.10457 47.6667 2C47.6667 0.89543 48.6367 0 49.8333 0Z" fill="#3ABF57"/>
</svg>
