<svg width="52" height="52" viewBox="0 0 52 52" fill="none" xmlns="http://www.w3.org/2000/svg">
<path d="M49.8333 40C48.6367 40 47.6667 39.1046 47.6667 38C47.6667 36.8954 48.6367 36 49.8333 36C51.03 36 52 36.8954 52 38C52 39.1046 51.03 40 49.8333 40Z" fill="#818181" fill-opacity="0.3"/>
<path d="M49.8333 52C48.6367 52 47.6667 51.1046 47.6667 50C47.6667 48.8954 48.6367 48 49.8333 48C51.03 48 52 48.8954 52 50C52 51.1046 51.03 52 49.8333 52Z" fill="#818181" fill-opacity="0.3"/>
<path d="M37.9167 16C36.72 16 35.75 15.1046 35.75 14C35.75 12.8954 36.72 12 37.9167 12C39.1133 12 40.0833 12.8954 40.0833 14C40.0833 15.1046 39.1133 16 37.9167 16Z" fill="#818181" fill-opacity="0.3"/>
<path d="M37.9167 28C36.72 28 35.75 27.1046 35.75 26C35.75 24.8954 36.72 24 37.9167 24C39.1133 24 40.0833 24.8954 40.0833 26C40.0833 27.1046 39.1133 28 37.9167 28Z" fill="#818181" fill-opacity="0.3"/>
<path d="M37.9167 40C36.72 40 35.75 39.1046 35.75 38C35.75 36.8954 36.72 36 37.9167 36C39.1133 36 40.0833 36.8954 40.0833 38C40.0833 39.1046 39.1133 40 37.9167 40Z" fill="#818181" fill-opacity="0.3"/>
<path d="M37.9167 52C36.72 52 35.75 51.1046 35.75 50C35.75 48.8954 36.72 48 37.9167 48C39.1133 48 40.0833 48.8954 40.0833 50C40.0833 51.1046 39.1133 52 37.9167 52Z" fill="#818181" fill-opacity="0.3"/>
<path d="M26 16C24.8034 16 23.8333 15.1046 23.8333 14C23.8333 12.8954 24.8034 12 26 12C27.1966 12 28.1667 12.8954 28.1667 14C28.1667 15.1046 27.1966 16 26 16Z" fill="#818181" fill-opacity="0.3"/>
<path d="M26 28C24.8034 28 23.8333 27.1046 23.8333 26C23.8333 24.8954 24.8034 24 26 24C27.1966 24 28.1667 24.8954 28.1667 26C28.1667 27.1046 27.1966 28 26 28Z" fill="#818181" fill-opacity="0.3"/>
<path d="M26 40C24.8034 40 23.8333 39.1046 23.8333 38C23.8333 36.8954 24.8034 36 26 36C27.1966 36 28.1667 36.8954 28.1667 38C28.1667 39.1046 27.1966 40 26 40Z" fill="#818181" fill-opacity="0.3"/>
<path d="M26 52C24.8034 52 23.8333 51.1046 23.8333 50C23.8333 48.8954 24.8034 48 26 48C27.1966 48 28.1667 48.8954 28.1667 50C28.1667 51.1046 27.1966 52 26 52Z" fill="#818181" fill-opacity="0.3"/>
<path d="M14.0833 4C12.8867 4 11.9167 3.10457 11.9167 2C11.9167 0.89543 12.8867 0 14.0833 0C15.2799 0 16.25 0.89543 16.25 2C16.25 3.10457 15.2799 4 14.0833 4Z" fill="#818181" fill-opacity="0.3"/>
<path d="M14.0833 16C12.8867 16 11.9167 15.1046 11.9167 14C11.9167 12.8954 12.8867 12 14.0833 12C15.2799 12 16.25 12.8954 16.25 14C16.25 15.1046 15.2799 16 14.0833 16Z" fill="#818181" fill-opacity="0.3"/>
<path d="M14.0833 28C12.8867 28 11.9167 27.1046 11.9167 26C11.9167 24.8954 12.8867 24 14.0833 24C15.2799 24 16.25 24.8954 16.25 26C16.25 27.1046 15.2799 28 14.0833 28Z" fill="#818181" fill-opacity="0.3"/>
<path d="M14.0833 40C12.8867 40 11.9167 39.1046 11.9167 38C11.9167 36.8954 12.8867 36 14.0833 36C15.2799 36 16.25 36.8954 16.25 38C16.25 39.1046 15.2799 40 14.0833 40Z" fill="#818181" fill-opacity="0.3"/>
<path d="M14.0833 52C12.8867 52 11.9167 51.1046 11.9167 50C11.9167 48.8954 12.8867 48 14.0833 48C15.2799 48 16.25 48.8954 16.25 50C16.25 51.1046 15.2799 52 14.0833 52Z" fill="#818181" fill-opacity="0.3"/>
<path d="M2.16666 4C0.970048 4 -1.90735e-06 3.10457 -1.90735e-06 2C-1.90735e-06 0.89543 0.970048 0 2.16666 0C3.36328 0 4.33333 0.89543 4.33333 2C4.33333 3.10457 3.36328 4 2.16666 4Z" fill="#818181" fill-opacity="0.3"/>
<path d="M2.16666 16C0.970048 16 -1.90735e-06 15.1046 -1.90735e-06 14C-1.90735e-06 12.8954 0.970048 12 2.16666 12C3.36328 12 4.33333 12.8954 4.33333 14C4.33333 15.1046 3.36328 16 2.16666 16Z" fill="#818181" fill-opacity="0.3"/>
<path d="M2.16666 28C0.970048 28 -1.90735e-06 27.1046 -1.90735e-06 26C-1.90735e-06 24.8954 0.970048 24 2.16666 24C3.36328 24 4.33333 24.8954 4.33333 26C4.33333 27.1046 3.36328 28 2.16666 28Z" fill="#818181" fill-opacity="0.3"/>
<path d="M2.16666 40C0.970048 40 -1.90735e-06 39.1046 -1.90735e-06 38C-1.90735e-06 36.8954 0.970048 36 2.16666 36C3.36328 36 4.33333 36.8954 4.33333 38C4.33333 39.1046 3.36328 40 2.16666 40Z" fill="#818181" fill-opacity="0.3"/>
<path d="M2.16666 52C0.970048 52 -1.90735e-06 51.1046 -1.90735e-06 50C-1.90735e-06 48.8954 0.970048 48 2.16666 48C3.36328 48 4.33333 48.8954 4.33333 50C4.33333 51.1046 3.36328 52 2.16666 52Z" fill="#818181" fill-opacity="0.3"/>
</svg>
