<svg width="52" height="52" viewBox="0 0 52 52" fill="none" xmlns="http://www.w3.org/2000/svg">
<path d="M40 2.16667C40 3.36328 39.1046 4.33333 38 4.33333C36.8954 4.33333 36 3.36328 36 2.16667C36 0.97005 36.8954 0 38 0C39.1046 0 40 0.97005 40 2.16667Z" fill="#3ABF57"/>
<path d="M52 2.16667C52 3.36328 51.1046 4.33333 50 4.33333C48.8954 4.33333 48 3.36328 48 2.16667C48 0.97005 48.8954 0 50 0C51.1046 0 52 0.97005 52 2.16667Z" fill="#3ABF57"/>
<path d="M16 14.0833C16 15.28 15.1046 16.25 14 16.25C12.8954 16.25 12 15.28 12 14.0833C12 12.8867 12.8954 11.9167 14 11.9167C15.1046 11.9167 16 12.8867 16 14.0833Z" fill="#3ABF57"/>
<path d="M28 14.0833C28 15.28 27.1046 16.25 26 16.25C24.8954 16.25 24 15.28 24 14.0833C24 12.8867 24.8954 11.9167 26 11.9167C27.1046 11.9167 28 12.8867 28 14.0833Z" fill="#3ABF57"/>
<path d="M40 14.0833C40 15.28 39.1046 16.25 38 16.25C36.8954 16.25 36 15.28 36 14.0833C36 12.8867 36.8954 11.9167 38 11.9167C39.1046 11.9167 40 12.8867 40 14.0833Z" fill="#3ABF57"/>
<path d="M52 14.0833C52 15.28 51.1046 16.25 50 16.25C48.8954 16.25 48 15.28 48 14.0833C48 12.8867 48.8954 11.9167 50 11.9167C51.1046 11.9167 52 12.8867 52 14.0833Z" fill="#3ABF57"/>
<path d="M16 26C16 27.1966 15.1046 28.1667 14 28.1667C12.8954 28.1667 12 27.1966 12 26C12 24.8034 12.8954 23.8333 14 23.8333C15.1046 23.8333 16 24.8034 16 26Z" fill="#3ABF57"/>
<path d="M28 26C28 27.1966 27.1046 28.1667 26 28.1667C24.8954 28.1667 24 27.1966 24 26C24 24.8034 24.8954 23.8333 26 23.8333C27.1046 23.8333 28 24.8034 28 26Z" fill="#3ABF57"/>
<path d="M40 26C40 27.1966 39.1046 28.1667 38 28.1667C36.8954 28.1667 36 27.1966 36 26C36 24.8034 36.8954 23.8333 38 23.8333C39.1046 23.8333 40 24.8034 40 26Z" fill="#3ABF57"/>
<path d="M52 26C52 27.1966 51.1046 28.1667 50 28.1667C48.8954 28.1667 48 27.1966 48 26C48 24.8034 48.8954 23.8333 50 23.8333C51.1046 23.8333 52 24.8034 52 26Z" fill="#3ABF57"/>
<path d="M4 37.9167C4 39.1133 3.10457 40.0833 2 40.0833C0.89543 40.0833 0 39.1133 0 37.9167C0 36.7201 0.89543 35.75 2 35.75C3.10457 35.75 4 36.7201 4 37.9167Z" fill="#3ABF57"/>
<path d="M16 37.9167C16 39.1133 15.1046 40.0833 14 40.0833C12.8954 40.0833 12 39.1133 12 37.9167C12 36.7201 12.8954 35.75 14 35.75C15.1046 35.75 16 36.7201 16 37.9167Z" fill="#3ABF57"/>
<path d="M28 37.9167C28 39.1133 27.1046 40.0833 26 40.0833C24.8954 40.0833 24 39.1133 24 37.9167C24 36.7201 24.8954 35.75 26 35.75C27.1046 35.75 28 36.7201 28 37.9167Z" fill="#3ABF57"/>
<path d="M40 37.9167C40 39.1133 39.1046 40.0833 38 40.0833C36.8954 40.0833 36 39.1133 36 37.9167C36 36.7201 36.8954 35.75 38 35.75C39.1046 35.75 40 36.7201 40 37.9167Z" fill="#3ABF57"/>
<path d="M52 37.9167C52 39.1133 51.1046 40.0833 50 40.0833C48.8954 40.0833 48 39.1133 48 37.9167C48 36.7201 48.8954 35.75 50 35.75C51.1046 35.75 52 36.7201 52 37.9167Z" fill="#3ABF57"/>
<path d="M4 49.8333C4 51.03 3.10457 52 2 52C0.89543 52 0 51.03 0 49.8333C0 48.6367 0.89543 47.6667 2 47.6667C3.10457 47.6667 4 48.6367 4 49.8333Z" fill="#3ABF57"/>
<path d="M16 49.8333C16 51.03 15.1046 52 14 52C12.8954 52 12 51.03 12 49.8333C12 48.6367 12.8954 47.6667 14 47.6667C15.1046 47.6667 16 48.6367 16 49.8333Z" fill="#3ABF57"/>
<path d="M28 49.8333C28 51.03 27.1046 52 26 52C24.8954 52 24 51.03 24 49.8333C24 48.6367 24.8954 47.6667 26 47.6667C27.1046 47.6667 28 48.6367 28 49.8333Z" fill="#3ABF57"/>
<path d="M40 49.8333C40 51.03 39.1046 52 38 52C36.8954 52 36 51.03 36 49.8333C36 48.6367 36.8954 47.6667 38 47.6667C39.1046 47.6667 40 48.6367 40 49.8333Z" fill="#3ABF57"/>
<path d="M52 49.8333C52 51.03 51.1046 52 50 52C48.8954 52 48 51.03 48 49.8333C48 48.6367 48.8954 47.6667 50 47.6667C51.1046 47.6667 52 48.6367 52 49.8333Z" fill="#3ABF57"/>
</svg>
