<svg width="24" height="23" viewBox="0 0 24 23" fill="none" xmlns="http://www.w3.org/2000/svg">
<path d="M10.9091 22.3296C9.4 22.3296 7.98182 22.0505 6.65455 21.4922C5.32727 20.934 4.17273 20.1764 3.19091 19.2194C2.20909 18.2624 1.43182 17.1371 0.859091 15.8434C0.286364 14.5497 0 13.1674 0 11.6965C0 10.2255 0.286364 8.84323 0.859091 7.54953C1.43182 6.25583 2.20909 5.13049 3.19091 4.17351C4.17273 3.21653 5.32727 2.45891 6.65455 1.90067C7.98182 1.34243 9.4 1.06331 10.9091 1.06331C11.6909 1.06331 12.4455 1.13863 13.1727 1.28927C13.9 1.4399 14.6 1.657 15.2727 1.94055V4.33301C14.6364 3.97857 13.95 3.69945 13.2136 3.49565C12.4773 3.29184 11.7091 3.18994 10.9091 3.18994C8.49091 3.18994 6.43182 4.01844 4.73182 5.67544C3.03182 7.33244 2.18182 9.33944 2.18182 11.6965C2.18182 14.0535 3.03182 16.0605 4.73182 17.7175C6.43182 19.3745 8.49091 20.203 10.9091 20.203C13.3273 20.203 15.3864 19.3745 17.0864 17.7175C18.7864 16.0605 19.6364 14.0535 19.6364 11.6965C19.6364 11.1294 19.5773 10.58 19.4591 10.0483C19.3409 9.51666 19.1818 9.00273 18.9818 8.50652H21.3273C21.4909 9.02045 21.6136 9.53882 21.6955 10.0616C21.7773 10.5844 21.8182 11.1294 21.8182 11.6965C21.8182 13.1674 21.5318 14.5497 20.9591 15.8434C20.3864 17.1371 19.6091 18.2624 18.6273 19.2194C17.6455 20.1764 16.4909 20.934 15.1636 21.4922C13.8364 22.0505 12.4182 22.3296 10.9091 22.3296ZM19.6364 6.37989V4.25326H17.4545V2.12663H19.6364V0H21.8182V2.12663H24V4.25326H21.8182V6.37989H19.6364ZM14.7273 10.6331C15.1818 10.6331 15.5682 10.4781 15.8864 10.1679C16.2045 9.85781 16.3636 9.48122 16.3636 9.03817C16.3636 8.59512 16.2045 8.21853 15.8864 7.9084C15.5682 7.59827 15.1818 7.4432 14.7273 7.4432C14.2727 7.4432 13.8864 7.59827 13.5682 7.9084C13.25 8.21853 13.0909 8.59512 13.0909 9.03817C13.0909 9.48122 13.25 9.85781 13.5682 10.1679C13.8864 10.4781 14.2727 10.6331 14.7273 10.6331ZM7.09091 10.6331C7.54545 10.6331 7.93182 10.4781 8.25 10.1679C8.56818 9.85781 8.72727 9.48122 8.72727 9.03817C8.72727 8.59512 8.56818 8.21853 8.25 7.9084C7.93182 7.59827 7.54545 7.4432 7.09091 7.4432C6.63636 7.4432 6.25 7.59827 5.93182 7.9084C5.61364 8.21853 5.45455 8.59512 5.45455 9.03817C5.45455 9.48122 5.61364 9.85781 5.93182 10.1679C6.25 10.4781 6.63636 10.6331 7.09091 10.6331ZM10.9091 17.5447C12.1455 17.5447 13.2682 17.2035 14.2773 16.5212C15.2864 15.839 16.0182 14.9396 16.4727 13.8231H5.34545C5.8 14.9396 6.53182 15.839 7.54091 16.5212C8.55 17.2035 9.67273 17.5447 10.9091 17.5447Z" fill="url(#paint0_linear_167_243)"/>
<defs>
<linearGradient id="paint0_linear_167_243" x1="12" y1="0" x2="12" y2="22.3296" gradientUnits="userSpaceOnUse">
<stop stop-color="#30E958"/>
<stop offset="1" stop-color="#3ABF57"/>
</linearGradient>
</defs>
</svg>
