<svg width="24" height="24" viewBox="0 0 24 24" fill="none" xmlns="http://www.w3.org/2000/svg">
<path d="M6.94286 12.3953L12.9429 13.1225L13.4 12.0474L11.6571 11.004L9 10.751L9.17143 8.25296L12.3429 8.50593L18.6571 12.3953C18.981 12.6061 19.319 12.7378 19.6714 12.7905C20.0238 12.8432 20.3429 12.7536 20.6286 12.5217L15.0286 6.32411H7.91429L6.05714 3.28854L2.91429 5.02767L5.08571 10.8142C5.2381 11.2569 5.48095 11.6153 5.81429 11.8893C6.14762 12.1634 6.52381 12.332 6.94286 12.3953ZM6.68571 14.8933C5.84762 14.7879 5.1 14.4611 4.44286 13.913C3.78571 13.365 3.29524 12.6588 2.97143 11.7945L0 3.79447L6.85714 0L9.14286 3.79447H15.0857C15.3905 3.79447 15.6857 3.86298 15.9714 4C16.2571 4.13702 16.5048 4.32148 16.7143 4.55336L24 12.6482L23.0286 13.7233C22.3048 14.5244 21.4381 15.004 20.4286 15.1621C19.419 15.3202 18.4667 15.1252 17.5714 14.5771L15.4 13.2806L15.0286 14.1976C14.819 14.6825 14.5048 15.0567 14.0857 15.3202C13.6667 15.5837 13.2095 15.6838 12.7143 15.6206L6.68571 14.8933ZM1.42857 24L0.8 21.5652L6.22857 19.9842C7.6 19.5837 9.05714 19.2095 10.6 18.8617C12.1429 18.5138 13.5524 18.3399 14.8286 18.3399C16.2571 18.3399 17.5857 18.6561 18.8143 19.2885C20.0429 19.9209 21.2571 20.7747 22.4571 21.8498L20.9143 23.7154C19.9429 22.809 18.9381 22.108 17.9 21.6126C16.8619 21.1173 15.8381 20.8696 14.8286 20.8696C13.6095 20.8696 12.2667 21.0435 10.8 21.3913C9.33333 21.7391 8.00952 22.0817 6.82857 22.419L1.42857 24Z" fill="url(#paint0_linear_167_249)"/>
<defs>
<linearGradient id="paint0_linear_167_249" x1="12" y1="0" x2="12" y2="24" gradientUnits="userSpaceOnUse">
<stop stop-color="#30E958"/>
<stop offset="1" stop-color="#3ABF57"/>
</linearGradient>
</defs>
</svg>
