<svg width="13" height="16" viewBox="0 0 13 16" fill="none" xmlns="http://www.w3.org/2000/svg">
<path d="M6.5 0C3.08767 0 0 2.61804 0 6.66757C0 9.25341 1.99085 12.2949 5.96378 15.799C6.11391 15.9287 6.3056 16 6.5039 16C6.7022 16 6.89389 15.9287 7.04402 15.799C11.0091 12.2949 13 9.25341 13 6.66757C13 2.61804 9.91233 0 6.5 0ZM6.5 8.13125C5.60597 8.13125 4.87476 7.39941 4.87476 6.50461C4.87476 5.60981 5.60597 4.87797 6.5 4.87797C7.39403 4.87797 8.12524 5.60981 8.12524 6.50461C8.12524 7.39941 7.39403 8.13125 6.5 8.13125Z" fill="#3ABF57"/>
</svg>
