<svg width="24" height="22" viewBox="0 0 24 22" fill="none" xmlns="http://www.w3.org/2000/svg">
<path d="M22.4299 19.3368L19.0654 15.8632L20.6355 14.2421L24 17.7158L22.4299 19.3368ZM18.3925 5.44211L16.8224 3.82105L20.1869 0.347368L21.757 1.96842L18.3925 5.44211ZM5.60748 5.44211L2.24299 1.96842L3.81308 0.347368L7.17757 3.82105L5.60748 5.44211ZM1.57009 19.3368L0 17.7158L3.36449 14.2421L4.93458 15.8632L1.57009 19.3368ZM8.46729 17.1658L12 14.9658L15.5327 17.1947L14.6075 13.0263L17.7196 10.2474L13.6262 9.87105L12 5.93421L10.3738 9.84211L6.28037 10.2184L9.39252 13.0263L8.46729 17.1658ZM5.07477 22L6.8972 13.8658L0.785047 8.39474L8.85981 7.67105L12 0L15.1402 7.67105L23.215 8.39474L17.1028 13.8658L18.9252 22L12 17.6868L5.07477 22Z" fill="url(#paint0_linear_167_241)"/>
<defs>
<linearGradient id="paint0_linear_167_241" x1="12" y1="0" x2="12" y2="22" gradientUnits="userSpaceOnUse">
<stop stop-color="#30E958"/>
<stop offset="1" stop-color="#3ABF57"/>
</linearGradient>
</defs>
</svg>
