<svg width="160" height="44" viewBox="0 0 160 44" fill="none" xmlns="http://www.w3.org/2000/svg">
<path d="M153.585 35.3334C152.203 35.3334 150.973 35.0963 149.895 34.6222C148.816 34.1482 147.964 33.5034 147.34 32.688C146.715 31.8537 146.365 30.9245 146.29 29.9005H151.087C151.144 30.4504 151.399 30.896 151.853 31.2374C152.307 31.5787 152.866 31.7494 153.528 31.7494C154.134 31.7494 154.597 31.6356 154.919 31.408C155.26 31.1615 155.43 30.8486 155.43 30.4694C155.43 30.0143 155.193 29.6824 154.72 29.4738C154.247 29.2462 153.481 28.9997 152.421 28.7342C151.286 28.4688 150.339 28.1938 149.582 27.9094C148.825 27.606 148.173 27.1414 147.624 26.5156C147.075 25.8708 146.801 25.008 146.801 23.9271C146.801 23.0169 147.047 22.192 147.539 21.4525C148.05 20.694 148.788 20.0966 149.753 19.6605C150.737 19.2243 151.901 19.0062 153.244 19.0062C155.231 19.0062 156.792 19.4993 157.928 20.4854C159.082 21.4714 159.745 22.7799 159.915 24.4107H155.43C155.354 23.8608 155.108 23.4246 154.692 23.1022C154.294 22.7799 153.765 22.6187 153.102 22.6187C152.535 22.6187 152.099 22.7325 151.797 22.96C151.494 23.1686 151.342 23.4625 151.342 23.8418C151.342 24.2969 151.579 24.6382 152.052 24.8658C152.544 25.0934 153.301 25.3209 154.323 25.5485C155.496 25.8519 156.452 26.1553 157.19 26.4587C157.928 26.7431 158.571 27.2172 159.12 27.8809C159.688 28.5257 159.981 29.398 160 30.4978C160 31.427 159.735 32.2614 159.205 33.0009C158.694 33.7215 157.947 34.2904 156.963 34.7076C155.998 35.1248 154.872 35.3334 153.585 35.3334Z" fill="#FFF6F6"/>
<path d="M128.105 27.1414C128.105 25.5105 128.408 24.0788 129.013 22.8462C129.638 21.6137 130.48 20.6655 131.54 20.0018C132.599 19.3381 133.782 19.0062 135.088 19.0062C136.204 19.0062 137.179 19.2338 138.012 19.6889C138.863 20.144 139.516 20.7414 139.97 21.4809V19.2338H144.824V35.1058H139.97V32.8587C139.497 33.5982 138.835 34.1956 137.983 34.6507C137.151 35.1058 136.176 35.3334 135.06 35.3334C133.773 35.3334 132.599 35.0015 131.54 34.3378C130.48 33.6551 129.638 32.6975 129.013 31.4649C128.408 30.2134 128.105 28.7722 128.105 27.1414ZM139.97 27.1698C139.97 25.9562 139.63 24.9985 138.948 24.2969C138.286 23.5953 137.472 23.2445 136.507 23.2445C135.542 23.2445 134.719 23.5953 134.038 24.2969C133.375 24.9796 133.044 25.9277 133.044 27.1414C133.044 28.355 133.375 29.3221 134.038 30.0427C134.719 30.7443 135.542 31.0951 136.507 31.0951C137.472 31.0951 138.286 30.7443 138.948 30.0427C139.63 29.3411 139.97 28.3834 139.97 27.1698Z" fill="#FFF6F6"/>
<path d="M120.1 19.1236C121.917 19.1236 123.374 19.7304 124.472 20.944C125.569 22.1387 126.118 23.7885 126.118 25.8934V35.1662H121.293V26.5476C121.293 25.4857 121.018 24.6608 120.469 24.0729C119.921 23.4851 119.183 23.1911 118.255 23.1911C117.328 23.1911 116.59 23.4851 116.041 24.0729C115.492 24.6608 115.218 25.4857 115.218 26.5476V35.1662H110.364V14.1174H115.218V21.4276C115.71 20.726 116.382 20.1665 117.233 19.7494C118.085 19.3322 119.041 19.1236 120.1 19.1236Z" fill="#FFF6F6"/>
<path d="M108.565 14.1174V35.1662H103.711V14.1174H108.565Z" fill="#FFF6F6"/>
<path d="M85.0829 27.1414C85.0829 25.5105 85.3857 24.0788 85.9912 22.8462C86.6157 21.6137 87.4579 20.6655 88.5176 20.0018C89.5773 19.3381 90.7601 19.0062 92.0658 19.0062C93.1823 19.0062 94.1569 19.2338 94.9895 19.6889C95.8411 20.144 96.494 20.7414 96.9481 21.4809V19.2338H101.802V35.1058H96.9481V32.8587C96.4751 33.5982 95.8127 34.1956 94.9611 34.6507C94.1285 35.1058 93.1539 35.3334 92.0374 35.3334C90.7506 35.3334 89.5773 35.0015 88.5176 34.3378C87.4579 33.6551 86.6157 32.6975 85.9912 31.4649C85.3857 30.2134 85.0829 28.7722 85.0829 27.1414ZM96.9481 27.1698C96.9481 25.9562 96.6075 24.9985 95.9263 24.2969C95.2639 23.5953 94.4502 23.2445 93.4851 23.2445C92.52 23.2445 91.6968 23.5953 91.0155 24.2969C90.3532 24.9796 90.022 25.9277 90.022 27.1414C90.022 28.355 90.3532 29.3221 91.0155 30.0427C91.6968 30.7443 92.52 31.0951 93.4851 31.0951C94.4502 31.0951 95.2639 30.7443 95.9263 30.0427C96.6075 29.3411 96.9481 28.3834 96.9481 27.1698Z" fill="#FFF6F6"/>
<path d="M76.9078 19.0062C78.8759 19.0062 80.4371 19.6036 81.5915 20.7982C82.7647 21.9929 83.3514 23.6522 83.3514 25.776V35.0489H78.5258V26.4302C78.5258 25.4062 78.2514 24.6193 77.7026 24.0694C77.1727 23.5005 76.4347 23.216 75.4885 23.216C74.5423 23.216 73.7948 23.5005 73.246 24.0694C72.7162 24.6193 72.4512 25.4062 72.4512 26.4302V35.0489H67.6257V26.4302C67.6257 25.4062 67.3513 24.6193 66.8025 24.0694C66.2726 23.5005 65.5346 23.216 64.5884 23.216C63.6422 23.216 62.8947 23.5005 62.3459 24.0694C61.8161 24.6193 61.5511 25.4062 61.5511 26.4302V35.0489H56.6972V19.1769H61.5511V21.168C62.0431 20.5043 62.6866 19.9828 63.4814 19.6036C64.2762 19.2054 65.175 19.0062 66.178 19.0062C67.3702 19.0062 68.4299 19.2622 69.3572 19.7742C70.3034 20.2862 71.0414 21.0163 71.5713 21.9645C72.1201 21.0922 72.8676 20.3811 73.8138 19.8311C74.7599 19.2812 75.7913 19.0062 76.9078 19.0062Z" fill="#FFF6F6"/>
<path d="M54.772 17.4845C53.9205 17.4845 53.2203 17.2379 52.6715 16.7449C52.1416 16.2329 51.8767 15.6071 51.8767 14.8676C51.8767 14.1091 52.1416 13.4833 52.6715 12.9902C53.2203 12.4782 53.9205 12.2222 54.772 12.2222C55.6047 12.2222 56.2859 12.4782 56.8158 12.9902C57.3646 13.4833 57.639 14.1091 57.639 14.8676C57.639 15.6071 57.3646 16.2329 56.8158 16.7449C56.2859 17.2379 55.6047 17.4845 54.772 17.4845ZM57.1848 19.1342V35.0062H52.3309V19.1342H57.1848Z" fill="url(#paint0_linear_151_392)"/>
<path d="M34.1791 27.0702C34.1791 25.4205 34.5102 23.9793 35.1726 22.7467C35.8538 21.5141 36.7905 20.566 37.9827 19.9022C39.1939 19.2385 40.5753 18.9067 42.1271 18.9067C44.1141 18.9067 45.7699 19.4282 47.0946 20.4711C48.4382 21.5141 49.3181 22.9837 49.7344 24.88H44.5682C44.133 23.6664 43.2909 23.0596 42.0419 23.0596C41.1525 23.0596 40.4428 23.4104 39.913 24.112C39.3831 24.7947 39.1182 25.7808 39.1182 27.0702C39.1182 28.3597 39.3831 29.3553 39.913 30.0569C40.4428 30.7396 41.1525 31.0809 42.0419 31.0809C43.2909 31.0809 44.133 30.4741 44.5682 29.2605H49.7344C49.3181 31.1188 48.4382 32.579 47.0946 33.6409C45.751 34.7028 44.0951 35.2338 42.1271 35.2338C40.5753 35.2338 39.1939 34.902 37.9827 34.2382C36.7905 33.5745 35.8538 32.6264 35.1726 31.3938C34.5102 30.1612 34.1791 28.72 34.1791 27.0702Z" fill="url(#paint1_linear_151_392)"/>
<path d="M32.5835 26.8142C32.5835 27.2694 32.5551 27.7434 32.4983 28.2365H21.513C21.5887 29.2225 21.901 29.9811 22.4498 30.512C23.0175 31.024 23.7082 31.28 24.5219 31.28C25.733 31.28 26.5752 30.768 27.0483 29.744H32.2145C31.9495 30.787 31.467 31.7257 30.7668 32.56C30.0855 33.3944 29.2245 34.0486 28.1837 34.5227C27.1429 34.9968 25.9791 35.2338 24.6922 35.2338C23.1405 35.2338 21.759 34.902 20.5479 34.2382C19.3368 33.5745 18.3906 32.6264 17.7093 31.3938C17.0281 30.1612 16.6875 28.72 16.6875 27.0702C16.6875 25.4205 17.0186 23.9793 17.681 22.7467C18.3622 21.5141 19.3084 20.566 20.5195 19.9022C21.7307 19.2385 23.1216 18.9067 24.6922 18.9067C26.2251 18.9067 27.5876 19.2291 28.7798 19.8738C29.972 20.5185 30.8992 21.4382 31.5616 22.6329C32.2428 23.8276 32.5835 25.2214 32.5835 26.8142ZM27.616 25.5342C27.616 24.6999 27.3321 24.0362 26.7644 23.5431C26.1967 23.0501 25.487 22.8036 24.6355 22.8036C23.8217 22.8036 23.131 23.0406 22.5633 23.5147C22.0145 23.9888 21.6739 24.662 21.5414 25.5342H27.616Z" fill="url(#paint2_linear_151_392)"/>
<path d="M14.0492 44H17.8923H12.4112C8.50514 44 5.46009 43.049 3.27605 41.147C1.09202 39.2027 0 36.0538 0 31.7003V17.6254V8.62248V0H5.25177H10.7732V8.62248H17.8293V17.6254H10.7732V31.8271C10.7732 32.8838 11.0252 33.6446 11.5292 34.1095C12.0332 34.5744 12.8732 34.8069 14.0492 34.8069V44Z" fill="url(#paint3_linear_151_392)"/>
<defs>
<linearGradient id="paint0_linear_151_392" x1="80" y1="0" x2="80" y2="44" gradientUnits="userSpaceOnUse">
<stop stop-color="#30E958"/>
<stop offset="1" stop-color="#3ABF57"/>
</linearGradient>
<linearGradient id="paint1_linear_151_392" x1="80" y1="0" x2="80" y2="44" gradientUnits="userSpaceOnUse">
<stop stop-color="#30E958"/>
<stop offset="1" stop-color="#3ABF57"/>
</linearGradient>
<linearGradient id="paint2_linear_151_392" x1="80" y1="0" x2="80" y2="44" gradientUnits="userSpaceOnUse">
<stop stop-color="#30E958"/>
<stop offset="1" stop-color="#3ABF57"/>
</linearGradient>
<linearGradient id="paint3_linear_151_392" x1="80" y1="0" x2="80" y2="44" gradientUnits="userSpaceOnUse">
<stop stop-color="#30E958"/>
<stop offset="1" stop-color="#3ABF57"/>
</linearGradient>
</defs>
</svg>
