<svg width="136" height="38" viewBox="0 0 136 38" fill="none" xmlns="http://www.w3.org/2000/svg">
<path d="M130.547 30.5152C129.373 30.5152 128.327 30.3105 127.41 29.901C126.494 29.4916 125.77 28.9348 125.239 28.2306C124.708 27.51 124.411 26.7075 124.346 25.8231H128.424C128.472 26.2981 128.689 26.6829 129.075 26.9777C129.461 27.2725 129.936 27.4199 130.499 27.4199C131.014 27.4199 131.408 27.3216 131.681 27.1251C131.971 26.9122 132.115 26.642 132.115 26.3144C132.115 25.9214 131.914 25.6348 131.512 25.4546C131.11 25.2581 130.459 25.0452 129.558 24.8159C128.593 24.5867 127.788 24.3492 127.145 24.1035C126.502 23.8415 125.947 23.4403 125.48 22.8998C125.014 22.343 124.781 21.5978 124.781 20.6643C124.781 19.8782 124.99 19.1658 125.408 18.5271C125.842 17.872 126.469 17.3562 127.29 16.9795C128.126 16.6028 129.116 16.4145 130.258 16.4145C131.947 16.4145 133.274 16.8403 134.239 17.6919C135.22 18.5435 135.783 19.6735 135.928 21.082H132.115C132.051 20.607 131.842 20.2304 131.488 19.9519C131.15 19.6735 130.7 19.5343 130.137 19.5343C129.654 19.5343 129.284 19.6326 129.027 19.8291C128.77 20.0093 128.641 20.2631 128.641 20.5906C128.641 20.9837 128.842 21.2785 129.244 21.475C129.662 21.6715 130.306 21.8681 131.174 22.0646C132.172 22.3266 132.984 22.5887 133.611 22.8507C134.239 23.0963 134.786 23.5058 135.252 24.079C135.735 24.6358 135.984 25.3891 136 26.339C136 27.1415 135.775 27.8621 135.324 28.5008C134.89 29.1231 134.255 29.6144 133.418 29.9747C132.598 30.335 131.641 30.5152 130.547 30.5152Z" fill="#FFF6F6"/>
<path d="M108.889 23.4403C108.889 22.0318 109.147 20.7954 109.661 19.7309C110.192 18.6663 110.908 17.8475 111.809 17.2743C112.71 16.7011 113.715 16.4145 114.825 16.4145C115.774 16.4145 116.602 16.611 117.31 17.0041C118.034 17.3971 118.589 17.913 118.975 18.5517V16.611H123.101V30.3186H118.975V28.378C118.573 29.0167 118.01 29.5325 117.286 29.9256C116.578 30.3186 115.75 30.5152 114.801 30.5152C113.707 30.5152 112.71 30.2286 111.809 29.6554C110.908 29.0658 110.192 28.2388 109.661 27.1742C109.147 26.0934 108.889 24.8487 108.889 23.4403ZM118.975 23.4648C118.975 22.4167 118.685 21.5897 118.106 20.9837C117.543 20.3777 116.852 20.0748 116.031 20.0748C115.211 20.0748 114.511 20.3777 113.932 20.9837C113.369 21.5733 113.088 22.3921 113.088 23.4403C113.088 24.4884 113.369 25.3236 113.932 25.946C114.511 26.5519 115.211 26.8549 116.031 26.8549C116.852 26.8549 117.543 26.5519 118.106 25.946C118.685 25.34 118.975 24.513 118.975 23.4648Z" fill="#FFF6F6"/>
<path d="M102.085 16.5158C103.629 16.5158 104.868 17.0399 105.801 18.088C106.734 19.1198 107.2 20.5446 107.2 22.3624V30.3708H103.099V22.9275C103.099 22.0103 102.865 21.2979 102.399 20.7902C101.932 20.2826 101.305 20.0287 100.517 20.0287C99.7288 20.0287 99.1014 20.2826 98.635 20.7902C98.1685 21.2979 97.9352 22.0103 97.9352 22.9275V30.3708H93.8094V12.1923H97.9352V18.5056C98.3535 17.8997 98.9245 17.4166 99.6483 17.0563C100.372 16.696 101.184 16.5158 102.085 16.5158Z" fill="#FFF6F6"/>
<path d="M92.2803 12.1923V30.3708H88.1544V12.1923H92.2803Z" fill="#FFF6F6"/>
<path d="M72.3205 23.4403C72.3205 22.0318 72.5778 20.7954 73.0926 19.7309C73.6234 18.6663 74.3392 17.8475 75.2399 17.2743C76.1407 16.7011 77.146 16.4145 78.2559 16.4145C79.205 16.4145 80.0333 16.611 80.7411 17.0041C81.4649 17.3971 82.0199 17.913 82.4059 18.5517V16.611H86.5318V30.3186H82.4059V28.378C82.0038 29.0167 81.4408 29.5325 80.717 29.9256C80.0092 30.3186 79.1808 30.5152 78.2318 30.5152C77.138 30.5152 76.1407 30.2286 75.2399 29.6554C74.3392 29.0658 73.6234 28.2388 73.0926 27.1742C72.5778 26.0934 72.3205 24.8487 72.3205 23.4403ZM82.4059 23.4648C82.4059 22.4167 82.1164 21.5897 81.5373 20.9837C80.9743 20.3777 80.2827 20.0748 79.4623 20.0748C78.642 20.0748 77.9423 20.3777 77.3632 20.9837C76.8002 21.5733 76.5187 22.3921 76.5187 23.4403C76.5187 24.4884 76.8002 25.3236 77.3632 25.946C77.9423 26.5519 78.642 26.8549 79.4623 26.8549C80.2827 26.8549 80.9743 26.5519 81.5373 25.946C82.1164 25.34 82.4059 24.513 82.4059 23.4648Z" fill="#FFF6F6"/>
<path d="M65.3716 16.4145C67.0445 16.4145 68.3715 16.9304 69.3527 17.9621C70.35 18.9939 70.8487 20.4269 70.8487 22.2611V30.2695H66.7469V22.8261C66.7469 21.9418 66.5137 21.2621 66.0472 20.7872C65.5968 20.2959 64.9695 20.0502 64.1652 20.0502C63.361 20.0502 62.7256 20.2959 62.2591 20.7872C61.8088 21.2621 61.5836 21.9418 61.5836 22.8261V30.2695H57.4818V22.8261C57.4818 21.9418 57.2486 21.2621 56.7821 20.7872C56.3317 20.2959 55.7044 20.0502 54.9001 20.0502C54.0959 20.0502 53.4605 20.2959 52.994 20.7872C52.5436 21.2621 52.3185 21.9418 52.3185 22.8261V30.2695H48.1926V16.5619H52.3185V18.2815C52.7367 17.7083 53.2836 17.2579 53.9591 16.9304C54.6347 16.5864 55.3988 16.4145 56.2513 16.4145C57.2647 16.4145 58.1654 16.6356 58.9536 17.0778C59.7579 17.5199 60.3852 18.1505 60.8356 18.9693C61.3021 18.216 61.9374 17.6018 62.7417 17.1269C63.546 16.652 64.4226 16.4145 65.3716 16.4145Z" fill="#FFF6F6"/>
<path d="M46.5562 15.1002C45.8324 15.1002 45.2372 14.8873 44.7708 14.4615C44.3204 14.0193 44.0952 13.4789 44.0952 12.8402C44.0952 12.1851 44.3204 11.6447 44.7708 11.2188C45.2372 10.7767 45.8324 10.5556 46.5562 10.5556C47.264 10.5556 47.843 10.7767 48.2934 11.2188C48.7599 11.6447 48.9931 12.1851 48.9931 12.8402C48.9931 13.4789 48.7599 14.0193 48.2934 14.4615C47.843 14.8873 47.264 15.1002 46.5562 15.1002ZM48.6071 16.525V30.2327H44.4812V16.525H48.6071Z" fill="#00FF37"/>
<path d="M29.0522 23.3788C29.0522 21.954 29.3337 20.7094 29.8967 19.6449C30.4757 18.5804 31.272 17.7615 32.2853 17.1883C33.3148 16.6151 34.489 16.3285 35.808 16.3285C37.497 16.3285 38.9044 16.7789 40.0304 17.6796C41.1724 18.5804 41.9204 19.8496 42.2743 21.4873H37.883C37.513 20.4392 36.7972 19.9151 35.7356 19.9151C34.9796 19.9151 34.3764 20.2181 33.926 20.824C33.4756 21.4136 33.2504 22.2652 33.2504 23.3788C33.2504 24.4925 33.4756 25.3523 33.926 25.9582C34.3764 26.5478 34.9796 26.8426 35.7356 26.8426C36.7972 26.8426 37.513 26.3185 37.883 25.2704H42.2743C41.9204 26.8754 41.1724 28.1364 40.0304 29.0535C38.8883 29.9706 37.4809 30.4292 35.808 30.4292C34.489 30.4292 33.3148 30.1426 32.2853 29.5694C31.272 28.9962 30.4757 28.1773 29.8967 27.1128C29.3337 26.0483 29.0522 24.8037 29.0522 23.3788Z" fill="#00FF37"/>
<path d="M27.6959 23.1578C27.6959 23.5508 27.6718 23.9602 27.6236 24.386H18.2861C18.3504 25.2377 18.6158 25.8927 19.0823 26.3513C19.5649 26.7935 20.152 27.0146 20.8436 27.0146C21.8731 27.0146 22.5889 26.5724 22.991 25.688H27.3823C27.1571 26.5888 26.7469 27.3994 26.1518 28.12C25.5727 28.8406 24.8408 29.4056 23.9561 29.8151C23.0714 30.2245 22.0822 30.4292 20.9884 30.4292C19.6694 30.4292 18.4952 30.1426 17.4657 29.5694C16.4363 28.9962 15.632 28.1773 15.0529 27.1128C14.4739 26.0483 14.1843 24.8037 14.1843 23.3788C14.1843 21.954 14.4658 20.7094 15.0288 19.6449C15.6079 18.5804 16.4121 17.7615 17.4416 17.1883C18.4711 16.6151 19.6533 16.3285 20.9884 16.3285C22.2913 16.3285 23.4494 16.6069 24.4628 17.1637C25.4762 17.7206 26.2644 18.5149 26.8273 19.5466C27.4064 20.5784 27.6959 21.7821 27.6959 23.1578ZM23.4736 22.0523C23.4736 21.3317 23.2323 20.7585 22.7497 20.3327C22.2672 19.9069 21.664 19.694 20.9401 19.694C20.2485 19.694 19.6614 19.8987 19.1788 20.3081C18.7123 20.7176 18.4228 21.299 18.3102 22.0523H23.4736Z" fill="#00FF37"/>
<path d="M11.9418 38H15.2085H10.5495C7.22937 38 4.64108 37.1787 2.78465 35.536C0.928215 33.8569 0 31.1374 0 27.3775V15.2219V7.44668V0H4.464H9.1572V7.44668H15.1549V15.2219H9.1572V27.487C9.1572 28.3996 9.3714 29.0567 9.79981 29.4582C10.2282 29.8597 10.9422 30.0605 11.9418 30.0605V38Z" fill="#00FF37"/>
</svg>
